HIERARCHY
ROOT Hips
{
  OFFSET -32.5998 29.0326 120.673
  CHANNELS 6 Xposition Yposition Zposition Zrotation Xrotation Yrotation
  JOINT LeftUpLeg
  {
    OFFSET 8.64259 1.95398 -2.38835
    CHANNELS 3 Zrotation Xrotation Yrotation
    JOINT LeftLeg
    {
      OFFSET 43.7702 0 0
      CHANNELS 3 Zrotation Xrotation Yrotation
      JOINT LeftFoot
      {
        OFFSET 40.6238 0 0
        CHANNELS 3 Zrotation Xrotation Yrotation
        JOINT LeftToeBase
        {
          OFFSET 12.7242 0 0
          CHANNELS 3 Zrotation Xrotation Yrotation
          End Site
          {
            OFFSET 0 0 0
          }
        }
      }
    }
  }
  JOINT RightUpLeg
  {
    OFFSET -8.2249 1.95398 -2.59336
    CHANNELS 3 Zrotation Xrotation Yrotation
    JOINT RightLeg
    {
      OFFSET 43.5653 0 0
      CHANNELS 3 Zrotation Xrotation Yrotation
      JOINT RightFoot
      {
        OFFSET 40.6238 0 0
        CHANNELS 3 Zrotation Xrotation Yrotation
        JOINT RightToeBase
        {
          OFFSET 12.7242 0 0
          CHANNELS 3 Zrotation Xrotation Yrotation
          End Site
          {
            OFFSET 0 0 0
          }
        }
      }
    }
  }
  JOINT Spine
  {
    OFFSET 0.165834 0.87714 6.61349
    CHANNELS 3 Zrotation Xrotation Yrotation
    JOINT Spine1
    {
      OFFSET 7.38963 1.71661e-005 0
      CHANNELS 3 Zrotation Xrotation Yrotation
      JOINT Spine2
      {
        OFFSET 11.9445 1.14441e-005 0
        CHANNELS 3 Zrotation Xrotation Yrotation
        JOINT Spine3
        {
          OFFSET 14.7254 4.19617e-005 0
          CHANNELS 3 Zrotation Xrotation Yrotation
          JOINT Spine4
          {
            OFFSET 10.9679 0 0
            CHANNELS 3 Zrotation Xrotation Yrotation
            JOINT RightShoulder
            {
              OFFSET 2.46616 -1.6653 3.69651
              CHANNELS 3 Zrotation Xrotation Yrotation
              JOINT RightArm
              {
                OFFSET 13.0012 0 0
                CHANNELS 3 Zrotation Xrotation Yrotation
                JOINT RightForeArm
                {
                  OFFSET 28.7848 1.62311e-005 0
                  CHANNELS 3 Zrotation Xrotation Yrotation
                  JOINT RightHand
                  {
                    OFFSET 26.5688 1.62095e-005 0
                    CHANNELS 3 Zrotation Xrotation Yrotation
                    End Site
                    {
                      OFFSET 0 0 0
                    }
                  }
                }
              }
            }
            JOINT LeftShoulder
            {
              OFFSET 2.38034 -1.29275 -3.7523
              CHANNELS 3 Zrotation Xrotation Yrotation
              JOINT LeftArm
              {
                OFFSET 16.3182 6.07031e-005 0
                CHANNELS 3 Zrotation Xrotation Yrotation
                JOINT LeftForeArm
                {
                  OFFSET 27.0901 0 0
                  CHANNELS 3 Zrotation Xrotation Yrotation
                  JOINT LeftHand
                  {
                    OFFSET 24.5451 1.51738e-005 0
                    CHANNELS 3 Zrotation Xrotation Yrotation
                    End Site
                    {
                      OFFSET 0 0 0
                    }
                  }
                }
              }
            }
            JOINT Neck
            {
              OFFSET 5.0226 -0.0266342 0
              CHANNELS 3 Zrotation Xrotation Yrotation
              JOINT Head
              {
                OFFSET 6.69364 2.86102e-005 0
                CHANNELS 3 Zrotation Xrotation Yrotation
                End Site
                {
                  OFFSET 0 0 0
                }
              }
            }
          }
        }
      }
    }
  }
}
MOTION
Frames:	12
Frame Time:	0.0416667
37.3749 91.9822 -274.289 64.7346 -73.445 66.3404 -167.015 -10.7309 97.2595 -23.08 19.9814 -0.805043 73.8097 12.1287 5.77999 58.123 10.9681 0.318678 177.376 50.3882 95.0458 -81.0399 4.57937 -2.56076 81.5626 -10.9599 -3.87105 12.5369 3.94291 8.82615 -2.40259 7.75276 -90.6518 11.359 -5.08474 -0.788237 -0.302044 -5.11447 -0.563115 -22.904 -4.61232 -2.28298 -2.89137 -4.61231 -2.28299 97.4055 -11.5766 -95.9621 64.0747 -19.6431 49.1302 -46.2547 13.8695 -82.6842 -2.7918 0.000645803 -6.57744 -85.8018 -27.2419 80.7088 -9.15645 -10.8205 -60.792 58.2779 -35.235 -108.301 6.83459 0.594056 4.1163 29.9326 2.64966 -7.71725 -12.3452 5.28249 4.38634 
38.0242 93.2363 -266.292 67.1533 -77.4457 68.3295 -167.775 -18.8161 96.721 -16.549 18.9096 0.0578463 58.8512 1.23581 5.0258 63.8851 13.2706 -4.97621 -179.914 49.2308 93.9921 -69.9929 1.61137 -2.69559 77.9815 -8.87423 -3.73483 14.3634 3.52389 8.0837 -2.5638 7.91057 -90.7622 11.0393 -5.457 -0.99276 -0.620317 -5.49538 -0.750926 -23.2306 -4.90583 -2.59048 -3.21798 -4.90582 -2.59047 96.826 -10.532 -98.007 62.26 -18.9955 51.9327 -44.5759 14.3938 -82.8648 -1.39315 -0.0222682 -6.01761 -85.3691 -25.9117 81.2576 -11.4276 -17.0715 -58.0687 51.2442 -34.8656 -114.689 11.8576 1.20826 6.11742 32.2613 5.20658 -5.79901 -16.2635 6.88255 4.68302 
38.4429 94.4289 -257.512 58.3009 -79.6992 61.8623 -168.545 -21.5171 97.75 -15.632 18.2943 2.12793 50.682 -5.46774 2.17562 40.1873 5.47226 -5.61643 -179.111 47.8419 96.2117 -56.2099 -3.63793 -1.7742 73.0061 -6.88801 -4.50928 16.5745 2.35351 8.91661 -2.51153 7.87834 -91.2387 11.0756 -5.57378 -1.92688 -0.58448 -5.65316 -1.67903 -23.1822 -4.73686 -3.51548 -3.16954 -4.73686 -3.51548 96.4752 -9.05422 -99.6438 60.7827 -17.4984 53.326 -41.2613 15.0962 -84.1091 -1.60224 0.00178412 -7.23395 -84.5508 -24.9682 82.7277 -10.8519 -17.4569 -57.0401 50.1618 -34.3697 -115.311 8.76982 0.844718 4.7862 34.0435 7.34948 -3.7863 -19.1688 7.99049 4.70702 
38.8716 95.1513 -248.96 51.7971 -80.6254 56.1644 -169.985 -22.3926 96.8061 -20.0205 20.1412 3.96383 52.1369 -5.40033 2.94958 17.1563 -3.29604 -2.94427 -179.105 45.4459 96.5675 -43.1996 -10.2347 -0.736924 71.1666 -6.63361 -3.19845 15.9482 2.36642 9.53134 -2.49657 7.80151 -91.5365 11.211 -5.68301 -2.50018 -0.449462 -5.7875 -2.24701 -23.038 -4.66909 -4.09436 -3.02538 -4.66908 -4.09437 95.7127 -8.22008 -102.341 58.9292 -14.649 54.3666 -39.4435 15.2665 -85.8601 -3.82568 0.0707456 -8.6862 -84.5212 -25.1746 82.8383 -8.30315 -15.0764 -55.4645 37.7498 -28.0331 -119.721 5.11585 -0.376472 -8.86078 33.2079 8.91483 -2.17466 -20.0086 8.72599 4.82666 
39.0522 95.0729 -240.946 47.5959 -81.4118 51.2043 -170.439 -23.0569 95.5564 -25.9761 21.4049 3.48925 58.5407 -0.686246 5.21078 7.82298 -5.61577 -5.60458 -178.646 43.225 96.2127 -33.3015 -16.0475 -0.528289 70.7609 -7.12038 -3.41509 15.5324 1.86935 11.2956 -2.38576 7.68355 -91.5017 11.4509 -5.44786 -2.43864 -0.210409 -5.54988 -2.19597 -22.7937 -4.4633 -3.96472 -2.78104 -4.46331 -3.96472 94.9711 -10.1762 -103.572 55.9533 -12.2409 53.5602 -35.1203 14.7579 -86.9873 -2.22052 0.00618301 -7.50333 -84.5929 -25.1417 82.6805 -6.76182 -7.93779 -54.6174 41.0716 -29.3613 -115.184 6.24737 -0.324034 -7.46785 30.726 8.70313 -3.32002 -18.4435 8.74578 6.98665 
39.0017 94.6387 -233.231 51.5989 -82.6061 53.6848 -170.042 -22.918 94.8423 -33.6006 20.0467 2.4916 60.5889 0.743965 4.58931 12.1675 -3.61487 -6.02223 -179.525 40.7633 96.3351 -29.1895 -17.8004 0.0756152 70.203 -6.9922 -4.41029 16.5949 1.28672 11.8441 -2.28373 7.69249 -91.348 11.4431 -5.17309 -2.16032 -0.219004 -5.26314 -1.93007 -22.8008 -4.28477 -3.6167 -2.78815 -4.28477 -3.61669 94.492 -13.1776 -103.471 51.2729 -9.37969 50.2414 -33.8693 13.3745 -88.3286 -3.51455 0.00080974 -6.07306 -85.4096 -27.9753 81.6732 -4.57438 -1.41612 -52.8517 52.3611 -33.2563 -107.682 11.3393 0.875728 3.95469 29.0128 8.40886 -3.09899 -17.8176 8.40166 6.85636 
38.7554 94.0668 -225.55 64.346 -83.818 64.8837 -169.601 -20.7497 94.5566 -44.5453 16.8694 1.9885 56.4849 -2.59669 3.24706 24.4343 1.05585 -6.53459 179.14 38.766 96.7068 -31.1507 -15.6709 0.712975 68.4599 -5.21069 -4.54425 18.6105 2.64464 5.83978 -2.22185 7.81123 -91.126 11.2179 -4.94552 -1.75511 -0.444474 -5.01795 -1.53528 -23.0281 -4.18933 -3.16202 -3.01548 -4.18931 -3.16201 93.7277 -17.2806 -103.633 45.6755 -6.19218 45.1093 -36.447 11.4437 -89.3184 -6.32311 0.0793673 -7.25244 -86.3776 -32.4071 80.8437 -1.05725 6.58135 -49.8211 57.7643 -33.7406 -102.222 9.18564 0.795653 4.3253 28.9666 8.07418 -2.71813 -18.4483 8.02114 5.87208 
38.5742 93.4944 -217.736 80.59 -84.7553 81.1096 -167.457 -16.4957 96.6031 -56.648 15.7132 1.38188 53.8043 -4.98399 7.15214 30.2741 3.21353 -6.87136 177.826 37.1475 97.6907 -36.6763 -17.3045 1.40734 62.5363 -0.152348 -4.2683 14.6763 3.4653 7.82602 -2.02995 7.91778 -91.0525 11.008 -4.52858 -1.66128 -0.655914 -4.5973 -1.46002 -23.2307 -3.8199 -2.94677 -3.21804 -3.81991 -2.94677 93.0239 -21.2621 -103.696 40.7236 -1.72775 39.4717 -37.6812 9.60852 -90.577 -6.82609 0.0365598 -6.20956 -87.8124 -37.2488 79.395 0.877332 14.9735 -45.7063 59.802 -33.1629 -98.1306 6.84374 0.412924 1.90263 27.4452 7.33689 -2.87642 -17.5871 7.40144 5.84815 
38.2106 92.4347 -210.135 95.7544 -85.1766 96.5864 -165.682 -10.6315 98.9504 -69.1534 9.5906 1.67653 57.6683 -2.94555 6.35533 26.8673 2.13639 -6.99765 175.708 36.6728 99.6395 -47.9311 -18.5864 2.40217 69.8609 -5.21417 -5.53057 5.27807 6.90698 8.71183 -1.79955 7.95096 -91.0936 10.9409 -4.08863 -1.78835 -0.724577 -4.16336 -1.60645 -23.2875 -3.36221 -2.93516 -3.27485 -3.36221 -2.93516 92.1818 -23.7493 -104.617 36.4029 4.8085 33.783 -36.5923 7.51325 -92.5089 -9.09187 -0.0599831 -4.65145 -89.3982 -43.7011 78.2513 1.63237 20.6061 -39.8264 64.6325 -32.607 -93.6282 8.74797 0.915749 5.93903 24.368 7.4205 0.11727 -14.5888 6.74439 3.65943 
37.4571 91.6227 -203.127 106.535 -85.4983 109.417 -164.939 -2.65226 101.972 -80.7419 5.99578 2.78257 61.6018 -0.747273 6.5279 27.109 2.66866 -8.11858 174.45 33.4931 103.158 -53.0197 -18.4484 2.96868 73.2594 -8.83271 -7.73151 12.8869 3.51593 9.52452 -1.40139 8.02821 -91.3502 10.7801 -3.41343 -2.37099 -0.888218 -3.51445 -2.2184 -23.4285 -2.54339 -3.28702 -3.41585 -2.5434 -3.28703 92.1471 -26.524 -103.659 34.2384 9.59916 26.1474 -36.1036 6.35814 -94.3913 -8.77515 -0.163544 -3.09846 -89.8878 -47.4986 78.3509 -2.32821 26.2923 -33.8487 62.5275 -29.6171 -91.459 8.37276 0.647798 3.44169 22.3399 6.62316 1.84522 -11.1519 5.56418 3.00121 
36.5537 91.2152 -196.473 116.091 -85.4626 122.765 -166.687 7.25068 105.766 -90.9464 6.45924 4.20512 64.5305 1.31565 8.23003 24.9224 2.0993 -8.41239 174.15 28.0387 107.528 -53.3464 -17.6455 3.98201 76.3053 -12.1763 -9.03837 13.6904 3.23919 9.47011 -0.967444 8.17269 -91.7788 10.4773 -2.743 -3.29074 -1.19464 -2.8851 -3.16693 -23.7062 -1.62809 -3.96211 -3.69357 -1.6281 -3.96213 91.8772 -29.384 -103.219 33.0219 13.4494 16.1868 -31.6993 4.76508 -95.3124 -11.5936 -0.586343 0.115285 -90.7265 -50.3018 77.7126 -8.77991 28.7656 -24.3175 64.8663 -26.5642 -88.5115 4.66005 0.245318 1.27249 22.7281 6.15499 3.71983 -10.0277 4.63151 0.87304 
36.1533 90.787 -189.748 113.77 -85.773 122.092 -170.949 16.698 106.068 -98.3522 8.14254 4.80023 67.0145 3.31386 9.84165 22.998 1.22644 -7.8813 174.513 23.3206 109.539 -53.4598 -16.8743 4.56528 79.9562 -15.569 -9.69731 14.7814 2.0949 11.4133 -0.634681 8.18456 -91.9963 10.4532 -2.17952 -3.77422 -1.22106 -2.34341 -3.67481 -23.7162 -0.945628 -4.2539 -3.7035 -0.94563 -4.25389 91.5592 -30.0821 -103.628 33.6602 14.5855 5.63652 -29.4876 4.48144 -96.1829 -11.9676 -0.389978 -1.67661 -90.542 -51.0993 78.1616 -18.0386 26.5733 -11.1618 67.3919 -25.8125 -88.874 4.55908 0.116846 -0.959453 24.3822 5.62941 4.06152 -11.2195 3.93606 0.710527 
